# xmcd
#
# Track frame offsets:
# 150
# 17478
# 34216
# 53567
# 72927
# 93605
# 106058
# 121728
# 139814
# 159211
# 179557
# 194707
# 213973
# 225273
# 239504
# 254946
#
# Disc length: 3596 seconds
#
#
# Revision: 0
# Processed by: cddbd v1.5.1PL2 Copyright (c) Steve Scherf et al.
# Submitted via: FreeRIP 2.944 
#
DISCID=dd0e0a10
DTITLE=Rodney Crowell  - Ballad Of Fast Eddie
DYEAR=1993
DGENRE=Country
TTITLE0=Ballad Of Fast Eddie
TTITLE1=She Loves The Jerk
TTITLE2=When The Blue Hour Comes
TTITLE3=Oh , King Richard
TTITLE4=Looking Foir You
TTITLE5=The Best I Can
TTITLE6=If Looks Could Kill
TTITLE7=Soul Searchin'
TTITLE8=Many A Long and Lonesome Highway
TTITLE9=The Faith Is  Mine
TTITLE10=Don't Let Your Feet Slow You Down
TTITLE11=Now That We're Alone
TTITLE12=Above And Beyond
TTITLE13=Brand New Rag
TTITLE14=It's Such A Small World
TTITLE15=She's Crazy For Leavin'
EXTD=
EXTT0=
EXTT1=
EXTT2=
EXTT3=
EXTT4=
EXTT5=
EXTT6=
EXTT7=
EXTT8=
EXTT9=
EXTT10=
EXTT11=
EXTT12=
EXTT13=
EXTT14=
EXTT15=
PLAYORDER=
